<svg width="17" height="18" viewBox="0 0 17 18" fill="none" xmlns="http://www.w3.org/2000/svg">
<path fill-rule="evenodd" clip-rule="evenodd" d="M8.62975 6.76667L10.9348 9.22037C10.9528 9.10221 10.9688 8.98298 10.9688 8.8595C10.9688 7.68428 10.0717 6.73047 8.96875 6.73047C8.85275 6.73047 8.73975 6.74644 8.62975 6.76667ZM10.8457 12.5896L9.30375 10.9481C9.19375 10.9683 9.08375 10.9885 8.96875 10.9885C7.86475 10.9885 6.96875 10.0358 6.96875 8.8595C6.96875 8.73708 6.98675 8.61892 7.00675 8.50289L5.46475 6.86141C5.15875 7.4586 4.96875 8.13031 4.96875 8.8595C4.96875 11.211 6.75975 13.1176 8.96875 13.1176C9.65275 13.1176 10.2847 12.9142 10.8457 12.5896ZM14.5387 14.5632L13.6187 15.5425L11.6777 13.4752C10.8397 13.9319 9.95475 14.1821 8.96875 14.1821C6.20875 14.1821 4.20875 12.4075 1.96875 8.8595C2.78575 7.56399 3.57275 6.52289 4.37575 5.70215L2.61875 3.83287L3.53875 2.85352L14.5387 14.5632ZM7.08675 5.12412L6.24775 4.231C7.08875 3.77432 7.97875 3.53693 8.96875 3.53693C11.7298 3.53693 13.7298 5.31148 15.9688 8.8595C15.1528 10.1518 14.3688 11.2025 13.5678 12.0232L12.4778 10.8629C12.7808 10.2636 12.9688 9.58763 12.9688 8.8595C12.9688 6.50799 11.1778 4.60145 8.96875 4.60145C8.28375 4.60145 7.65075 4.80157 7.08675 5.12412Z" fill="#22242B"/>
</svg>
