<svg width="17" height="17" viewBox="0 0 17 17" fill="none" xmlns="http://www.w3.org/2000/svg">
<path fill-rule="evenodd" clip-rule="evenodd" d="M1.26953 8.97266C3.50953 5.63966 5.50953 3.97266 8.26953 3.97266C11.0305 3.97266 13.0305 5.63966 15.2695 8.97266C13.0305 12.3057 11.0305 13.9727 8.26953 13.9727C5.50953 13.9727 3.50953 12.3057 1.26953 8.97266ZM8.26953 12.9727C10.4785 12.9727 12.2695 11.1817 12.2695 8.97266C12.2695 6.76366 10.4785 4.97266 8.26953 4.97266C6.06053 4.97266 4.26953 6.76366 4.26953 8.97266C4.26953 11.1817 6.06053 12.9727 8.26953 12.9727ZM8.26953 10.9727C7.16553 10.9727 6.26953 10.0777 6.26953 8.97266C6.26953 7.86866 7.16553 6.97266 8.26953 6.97266C9.37353 6.97266 10.2695 7.86866 10.2695 8.97266C10.2695 10.0777 9.37353 10.9727 8.26953 10.9727Z" fill="black"/>
</svg>
