<svg width="53" height="34" viewBox="0 0 53 34" fill="none" xmlns="http://www.w3.org/2000/svg">
<path d="M35.5094 22.8674H41.3045V17.1715H35.5094V22.8674ZM43.4467 23.76L43.4451 23.8243C43.4127 24.4633 42.9003 24.9756 42.2614 25.0081L42.1971 25.0096H34.6168L34.5525 25.0081C33.9135 24.9757 33.4012 24.4633 33.3688 23.8243L33.3672 23.76V16.2789C33.3672 15.6104 33.8922 15.0643 34.5525 15.0309L34.6168 15.0293H42.1971L42.2614 15.0309C42.9216 15.0644 43.4467 15.6104 43.4467 16.2789V23.76Z" fill="#67499E"/>
<path d="M37.3394 22.8935V21.1252H34.9461C34.3546 21.1252 33.875 20.6457 33.875 20.0541C33.875 19.4626 34.3546 18.983 34.9461 18.983H37.3394V16.8387C37.3394 16.2471 37.8189 15.7676 38.4105 15.7676C39.0021 15.7676 39.4816 16.2471 39.4816 16.8387V18.983H41.9746L42.0297 18.9844C42.5956 19.0131 43.0457 19.481 43.0457 20.0541C43.0457 20.6272 42.5956 21.0952 42.0297 21.1238L41.9746 21.1252H39.4816V22.8935C39.4816 23.485 39.002 23.9646 38.4105 23.9646C37.819 23.9646 37.3394 23.485 37.3394 22.8935Z" fill="#67499E"/>
<path d="M13.3501 6.9707C20.557 6.9707 26.3994 12.8131 26.3994 20.02C26.3994 22.2876 25.8207 24.42 24.8034 26.278L23.1842 23.3237C23.5326 22.286 23.7216 21.1751 23.7216 20.02C23.7216 14.292 19.0781 9.64849 13.3501 9.64849C7.62206 9.64849 2.97857 14.292 2.97857 20.02C2.97857 25.7481 7.62206 30.3916 13.3501 30.3916C16.8205 30.3916 19.8925 28.6869 21.7752 26.0694L24.0112 27.5464C21.6481 30.8877 17.7539 33.0693 13.3501 33.0693C6.14316 33.0693 0.300781 27.227 0.300781 20.02C0.300781 12.8131 6.14316 6.9707 13.3501 6.9707Z" fill="#67499E"/>
<path d="M37.1457 0.543815C37.6189 0.177982 38.2894 0.198063 38.7403 0.599251L52.1017 12.4877L52.1503 12.5334C52.3867 12.7674 52.5208 13.0869 52.5208 13.4213V31.0969C52.5207 31.7869 51.9612 32.3463 51.2712 32.3463H28.4407C28.269 32.3463 28.099 32.311 27.9416 32.2424C23.3021 30.2213 21.1082 26.8222 20.3234 23.4716C19.5558 20.1941 20.1356 16.9783 20.9829 15.1434L21.3513 14.3454L22.9408 17.0129C22.4866 18.4687 22.2321 20.6618 22.7567 22.9016C23.3631 25.4907 25.0097 28.1582 28.7072 29.8472H50.0216C50.0216 26.7564 50.0216 18.7343 50.0216 13.9819L37.8906 3.18855L24.7259 14.3736L23.8722 15.0986L22.3814 13.0862L23.1078 12.4691L37.1006 0.580424L37.1457 0.543815Z" fill="#67499E"/>
</svg>
