<svg width="50" height="51" viewBox="0 0 50 51" fill="none" xmlns="http://www.w3.org/2000/svg">
<path d="M0.140625 9.86583C0.140625 4.74393 4.29275 0.591797 9.41466 0.591797H40.6771C45.799 0.591797 49.9512 4.74393 49.9512 9.86583V41.1283C49.9512 46.2502 45.799 50.4023 40.6771 50.4023H9.41466C4.29275 50.4023 0.140625 46.2502 0.140625 41.1283V9.86583Z" fill="#EADEFF"/>
<path d="M32.67 30.685H37.5259V25.9122H32.67V30.685ZM39.321 31.4329L39.3196 31.4868C39.2925 32.0222 38.8631 32.4516 38.3278 32.4787L38.2738 32.48H31.9221L31.8682 32.4787C31.3328 32.4516 30.9035 32.0222 30.8763 31.4868L30.875 31.4329V25.1643C30.875 24.6041 31.315 24.1466 31.8682 24.1185L31.9221 24.1172H38.2738L38.3278 24.1185C38.881 24.1466 39.321 24.6041 39.321 25.1643V31.4329Z" fill="#67499E"/>
<path d="M34.2037 30.7074V29.2257H32.1983C31.7026 29.2257 31.3008 28.8239 31.3008 28.3282C31.3008 27.8325 31.7026 27.4306 32.1983 27.4306H34.2037V25.6339C34.2037 25.1382 34.6055 24.7363 35.1012 24.7363C35.5969 24.7363 35.9988 25.1382 35.9988 25.6339V27.4306H38.0877L38.1339 27.4318C38.6081 27.4558 38.9852 27.848 38.9852 28.3282C38.9852 28.8084 38.6081 29.2005 38.1339 29.2245L38.0877 29.2257H35.9988V30.7074C35.9987 31.203 35.5969 31.6049 35.1012 31.6049C34.6056 31.6049 34.2037 31.203 34.2037 30.7074Z" fill="#67499E"/>
<path d="M14.1024 17.3652C20.1414 17.3652 25.0369 22.2608 25.0369 28.2997C25.0369 30.1998 24.552 31.9866 23.6995 33.5434L22.3427 31.0679C22.6347 30.1984 22.7931 29.2676 22.7931 28.2997C22.7931 23.5 18.9022 19.609 14.1024 19.609C9.30272 19.609 5.41177 23.5 5.41177 28.2997C5.41177 33.0994 9.30272 36.9904 14.1024 36.9904C17.0104 36.9904 19.5845 35.562 21.1621 33.3687L23.0357 34.6063C21.0556 37.4061 17.7926 39.2342 14.1024 39.2342C8.0635 39.2342 3.16797 34.3386 3.16797 28.2997C3.16797 22.2608 8.0635 17.3652 14.1024 17.3652Z" fill="#67499E"/>
<path d="M34.041 11.9791C34.4374 11.6726 34.9993 11.6894 35.3771 12.0256L46.5731 21.9873L46.6138 22.0256C46.8119 22.2217 46.9242 22.4894 46.9243 22.7696V37.5806C46.9242 38.1588 46.4554 38.6274 45.8772 38.6275H26.7467C26.6028 38.6275 26.4604 38.5979 26.3285 38.5404C22.4409 36.8469 20.6026 33.9987 19.945 31.1911C19.3018 28.4448 19.7876 25.7501 20.4976 24.2126L20.8063 23.5439L22.1382 25.7792C21.7576 26.999 21.5444 28.8367 21.9839 30.7134C22.4921 32.8829 23.8718 35.1181 26.9701 36.5334H44.8301C44.8301 33.9435 44.8301 27.2215 44.8301 23.2393L34.6652 14.1952L23.634 23.5676L22.9187 24.1751L21.6694 22.4888L22.2781 21.9717L34.0032 12.0098L34.041 11.9791Z" fill="#67499E"/>
</svg>
