<svg width="112" height="112" viewBox="0 0 112 112" fill="none" xmlns="http://www.w3.org/2000/svg">
<path d="M0.820312 21.3033C0.820312 9.9585 10.0171 0.761719 21.3619 0.761719H90.6069C101.952 0.761719 111.148 9.9585 111.148 21.3033V90.5483C111.148 101.893 101.952 111.09 90.6069 111.09H21.3619C10.0171 111.09 0.820312 101.893 0.820312 90.5483V21.3033Z" fill="white"/>
<path d="M72.8705 67.4165H83.626V56.8451H72.8705V67.4165ZM87.6019 69.0732L87.599 69.1926C87.5389 70.3785 86.5879 71.3294 85.402 71.3896L85.2826 71.3925H71.2138L71.0944 71.3896C69.9085 71.3294 68.9576 70.3785 68.8974 69.1926L68.8945 69.0732V55.1884C68.8945 53.9476 69.869 52.9342 71.0944 52.8721L71.2138 52.8691H85.2826L85.402 52.8721C86.6275 52.9342 87.6019 53.9476 87.6019 55.1884V69.0732Z" fill="#67499E"/>
<path d="M76.2658 67.4659V64.184H71.8239C70.726 64.184 69.8359 63.2939 69.8359 62.196C69.836 61.0981 70.726 60.208 71.8239 60.208H76.2658V56.2282C76.2658 55.1303 77.1558 54.2402 78.2538 54.2402C79.3517 54.2402 80.2417 55.1303 80.2417 56.2282V60.208H84.8687L84.9709 60.2106C86.0213 60.2638 86.8566 61.1324 86.8567 62.196C86.8567 63.2596 86.0213 64.1282 84.9709 64.1814L84.8687 64.184H80.2417V67.4659C80.2416 68.5637 79.3516 69.4538 78.2538 69.4538C77.1559 69.4538 76.2659 68.5637 76.2658 67.4659Z" fill="#67499E"/>
<path d="M31.7467 37.9141C45.1227 37.9141 55.966 48.7574 55.966 62.1334C55.966 66.3421 54.8919 70.2997 53.0038 73.748L49.9986 68.2649C50.6453 66.339 50.9961 64.2772 50.9961 62.1334C50.9961 51.5023 42.3779 42.884 31.7467 42.884C21.1155 42.884 12.4973 51.5023 12.4973 62.1334C12.4973 72.7646 21.1155 81.3828 31.7467 81.3828C38.1877 81.3828 43.8892 78.219 47.3835 73.3611L51.5336 76.1023C47.1476 82.3037 39.9202 86.3528 31.7467 86.3528C18.3707 86.3528 7.52734 75.5094 7.52734 62.1334C7.52734 48.7574 18.3707 37.9141 31.7467 37.9141Z" fill="#67499E"/>
<path d="M75.907 25.9856C76.7852 25.3067 78.0297 25.3439 78.8666 26.0885L103.665 48.1534L103.755 48.2382C104.194 48.6725 104.443 49.2654 104.443 49.886V82.6917C104.443 83.9724 103.404 85.0105 102.124 85.0106H59.7505C59.4319 85.0106 59.1164 84.945 58.8242 84.8178C50.2134 81.0667 46.1416 74.758 44.6851 68.5393C43.2603 62.4563 44.3364 56.4878 45.9091 53.0823L46.5927 51.6011L49.5428 56.5521C48.6998 59.2539 48.2276 63.3243 49.2012 67.4813C50.3267 72.2866 53.3828 77.2375 60.2452 80.3722H99.8045C99.8045 74.6358 99.8045 59.7469 99.8045 50.9265L77.2896 30.8942L52.856 51.6536L51.2716 52.9992L48.5046 49.2641L49.8528 48.1188L75.8232 26.0536L75.907 25.9856Z" fill="#67499E"/>
</svg>
