<svg width="5" height="15" viewBox="0 0 5 15" fill="none" xmlns="http://www.w3.org/2000/svg">
    <path fill-rule="evenodd" clip-rule="evenodd" d="M2.53906 0.585234C1.64156 0.585234 0.914062 1.31273 0.914062 2.21023C0.914062 3.10773 1.64156 3.83523 2.53906 3.83523C3.43656 3.83523 4.16406 3.10773 4.16406 2.21023C4.16406 1.31273 3.43656 0.585234 2.53906 0.585234M2.53906 11.3352C1.64156 11.3352 0.914062 12.0627 0.914062 12.959C0.914062 13.8565 1.64156 14.584 2.53906 14.584C3.43656 14.584 4.16406 13.8565 4.16406 12.959C4.16406 12.0627 3.43656 11.3352 2.53906 11.3352M4.16406 7.58523C4.16406 8.48148 3.43656 9.20898 2.53906 9.20898C1.64156 9.20898 0.914062 8.48148 0.914062 7.58523C0.914062 6.68773 1.64156 5.96023 2.53906 5.96023C3.43656 5.96023 4.16406 6.68773 4.16406 7.58523" fill="#73767E"/>
</svg>
