<svg width="30" height="31" viewBox="0 0 30 31" fill="none" xmlns="http://www.w3.org/2000/svg">
<path fill-rule="evenodd" clip-rule="evenodd" d="M12.4006 20.3748C8.77194 20.3748 5.82119 17.3223 5.82119 13.5667C5.82119 9.81297 8.77194 6.76047 12.4006 6.76047C16.031 6.76047 18.9818 9.81297 18.9818 13.5667C18.9818 17.3223 16.031 20.3748 12.4006 20.3748ZM26.5 26.0148L20.0239 19.3173C21.1676 17.6973 21.8654 15.723 21.8654 13.5667C21.8654 8.16859 17.6206 3.77734 12.4006 3.77734C7.18238 3.77734 2.9375 8.16859 2.9375 13.5667C2.9375 18.9648 7.18238 23.358 12.4006 23.358C14.4976 23.358 16.4189 22.6248 17.9885 21.4286L24.4628 28.1242L26.5 26.0148Z" fill="#22242B"/>
</svg>
