<svg width="27" height="27" viewBox="0 0 27 27" fill="none" xmlns="http://www.w3.org/2000/svg">
<path fill-rule="evenodd" clip-rule="evenodd" d="M13.875 17.377C11.8568 17.377 10.2188 15.7406 10.2188 13.7207C10.2188 11.7008 11.8568 10.0645 13.875 10.0645C15.8932 10.0645 17.5312 11.7008 17.5312 13.7207C17.5312 15.7406 15.8932 17.377 13.875 17.377ZM24.4375 15.3457V12.0957L21.7075 11.6765C21.5174 10.9468 21.2297 10.2643 20.8576 9.63058L22.494 7.40108L20.1946 5.10333L17.9667 6.73808C17.3314 6.36595 16.6489 6.0767 15.9209 5.88658L15.5 3.1582H12.25L11.8291 5.88658C11.1011 6.0767 10.4186 6.36595 9.78325 6.73808L7.55538 5.10333L5.256 7.40108L6.89237 9.63058C6.52025 10.2643 6.23263 10.9468 6.0425 11.6765L3.3125 12.0957V15.3457L6.0425 15.765C6.23263 16.4946 6.52025 17.1771 6.89237 17.8108L5.256 20.0403L7.55538 22.3381L9.78325 20.7033C10.4186 21.0755 11.1011 21.3647 11.8291 21.5548L12.25 24.2832H15.5L15.9209 21.5548C16.6489 21.3647 17.3314 21.0755 17.9667 20.7033L20.1946 22.3381L22.494 20.0403L20.8576 17.8108C21.2297 17.1771 21.5174 16.4946 21.7075 15.765L24.4375 15.3457Z" fill="#22242B"/>
</svg>
