<svg width="18" height="17" viewBox="0 0 18 17" fill="none" xmlns="http://www.w3.org/2000/svg">
    <path fill-rule="evenodd" clip-rule="evenodd" d="M9.18811 0.908203L6.72698 6.33587L0.804688 6.99936L5.20598 11.0174L4.00716 16.8547L9.18811 13.9097L14.3691 16.8547L13.1702 11.0174L17.5715 6.99936L11.6492 6.33587L9.18811 0.908203ZM9.18811 4.67835L10.2312 6.979L10.5965 7.785L11.4756 7.88321L13.9858 8.16465L12.1211 9.86649L11.4672 10.4641L11.6457 11.33L12.1534 13.8055L9.95699 12.5576L9.18811 12.1192L8.41923 12.5576L6.22277 13.8055L6.73057 11.33L6.90902 10.4641L6.25511 9.86649L4.3904 8.16465L6.90063 7.88321L7.7797 7.785L8.14497 6.979L9.18811 4.67835Z" fill="#22242B"/>
</svg>
