<svg width="20" height="20" viewBox="0 0 20 20" fill="none" xmlns="http://www.w3.org/2000/svg">
    <path fill-rule="evenodd" clip-rule="evenodd" d="M10 1.55078L7.43125 7.21578L1.25 7.90828L5.84375 12.102L4.5925 18.1945L10 15.1208L15.4075 18.1945L14.1562 12.102L18.75 7.90828L12.5688 7.21578L10 1.55078ZM10 5.48578L11.0887 7.88703L11.47 8.72828L12.3875 8.83078L15.0075 9.12453L13.0612 10.9008L12.3787 11.5245L12.565 12.4283L13.095 15.012L10.8025 13.7095L10 13.252L9.1975 13.7095L6.905 15.012L7.435 12.4283L7.62125 11.5245L6.93875 10.9008L4.9925 9.12453L7.6125 8.83078L8.53 8.72828L8.91125 7.88703L10 5.48578Z" fill="#22242B"/>
</svg>
