<svg width="25" height="25" viewBox="0 0 20 20" fill="none" xmlns="http://www.w3.org/2000/svg">
    <path fill-rule="evenodd" clip-rule="evenodd" d="M9.5 4L10.6958 6.77273L11.1146 7.74413L12.1223 7.86249L15 8.20168L12.8623 10.2527L12.1127 10.973L12.3173 12.0165L12.8994 15L10.3814 13.496L9.5 12.9677L8.61857 13.496L6.1006 15L6.68273 12.0165L6.88729 10.973L6.13767 10.2527L4 8.20168L6.87768 7.86249L7.88542 7.74413L8.30417 6.77273L9.5 4Z" fill="#FFFB00"/>
    <path fill-rule="evenodd" clip-rule="evenodd" d="M9.58264 1.48633L7.12151 6.914L1.19922 7.57748L5.60052 11.5955L4.40169 17.4328L9.58264 14.4878L14.7636 17.4328L13.5648 11.5955L17.9661 7.57748L12.0438 6.914L9.58264 1.48633ZM9.58264 5.25647L10.6258 7.55712L10.9911 8.36313L11.8701 8.46134L14.3804 8.74278L12.5156 10.4446L11.8617 11.0422L12.0402 11.9081L12.548 14.3836L10.3515 13.1357L9.58264 12.6974L8.81376 13.1357L6.6173 14.3836L7.1251 11.9081L7.30355 11.0422L6.64964 10.4446L4.78493 8.74278L7.29516 8.46134L8.17423 8.36313L8.5395 7.55712L9.58264 5.25647Z" fill="#22242B"/>
</svg>
