<svg width="20" height="20" viewBox="0 0 20 20" fill="none" xmlns="http://www.w3.org/2000/svg">
    <path fill-rule="evenodd" clip-rule="evenodd" d="M10 2L7.65143 7.42767L2 8.09116L6.2 12.1092L5.056 17.9465L10 15.0015L14.944 17.9465L13.8 12.1092L18 8.09116L12.3486 7.42767L10 2ZM9.99912 5.76875L10.9945 8.0694L11.3431 8.87541L12.182 8.97361L14.5774 9.25506L12.798 10.9569L12.174 11.5545L12.3443 12.4204L12.8288 14.8959L10.7328 13.648L9.99912 13.2096L9.2654 13.648L7.1694 14.8959L7.65398 12.4204L7.82426 11.5545L7.20026 10.9569L5.42083 9.25506L7.81626 8.97361L8.65512 8.87541L9.00369 8.0694L9.99912 5.76875Z" fill="#FFFB00"/>
    <path d="M10.1101 4L11.7169 8.83688H16.9168L12.71 11.8262L14.3169 16.6631L10.1101 13.6738L5.90334 16.6631L7.51018 11.8262L3.30341 8.83688H8.50326L10.1101 4Z" fill="#FBFF00"/>
    <path fill-rule="evenodd" clip-rule="evenodd" d="M10 1.55078L7.43125 7.21578L1.25 7.90828L5.84375 12.102L4.5925 18.1945L10 15.1208L15.4075 18.1945L14.1562 12.102L18.75 7.90828L12.5688 7.21578L10 1.55078ZM10 5.48578L11.0887 7.88703L11.47 8.72828L12.3875 8.83078L15.0075 9.12453L13.0612 10.9008L12.3787 11.5245L12.565 12.4283L13.095 15.012L10.8025 13.7095L10 13.252L9.1975 13.7095L6.905 15.012L7.435 12.4283L7.62125 11.5245L6.93875 10.9008L4.9925 9.12453L7.6125 8.83078L8.53 8.72828L8.91125 7.88703L10 5.48578Z" fill="#22242B"/>
</svg>
