<svg width="21" height="17" viewBox="0 0 21 17" fill="none" xmlns="http://www.w3.org/2000/svg">
    <path d="M17.3064 13.1738C17.983 13.264 18.9713 13.8007 17.5115 15.2246C16.0514 16.6486 14.5293 17.0049 13.9509 17.0049H4.36794C3.30905 16.7345 1.38955 15.8375 0.9236 14.8447C0.427626 13.787 0.575654 13.1739 1.75856 13.1738H17.3064ZM14.6101 0.623047C15.3623 0.623047 16.1334 1.15139 16.1336 2.17773C19.8423 2.04802 20.3258 5.01421 20.3259 5.77344C20.3259 9.6135 17.0139 9.78685 15.3689 9.97461C14.757 11.5247 13.6702 12.2854 12.7068 12.5205H6.69411C3.52148 12.5205 2.56979 9.23054 2.59255 7.57812V2.17773C2.79092 1.25867 3.45941 0.623171 4.19508 0.623047H14.6101ZM15.9646 4.35352V7.88477C16.6133 7.68341 18.0701 7.65079 18.0701 6.03613C18.07 5.06103 17.455 4.17967 15.9646 4.35352Z" fill="#F97137"/>
</svg>
