<svg width="23" height="19" viewBox="0 0 23 19" fill="none" xmlns="http://www.w3.org/2000/svg">
    <path d="M19.5597 0.574895C19.934 0.631271 20.2469 0.877308 20.3556 1.2159L22.1193 6.71755L22.132 6.76005L22.17 6.93978C22.2442 7.37988 22.2019 7.96286 21.8751 8.51927C21.5801 9.02149 21.0906 9.43811 20.3956 9.703V18.0104C20.3956 18.511 19.9478 18.9169 19.3956 18.917H3.20226C2.65016 18.9168 2.20226 18.511 2.20226 18.0104V9.69238C1.79824 9.5467 1.36497 9.34306 0.999134 9.0682C0.68157 8.82957 0.355746 8.49474 0.192493 8.04737C0.0286061 7.59809 0.06246 7.12144 0.283313 6.65824L2.25206 1.18757L2.31359 1.05388C2.48283 0.755828 2.82378 0.562638 3.20226 0.5625H19.3956L19.5597 0.574895ZM4.20226 17.1038H8.36242V13.8828C8.36242 13.3821 8.81019 12.9763 9.36242 12.9762H12.9249C13.4772 12.9762 13.9249 13.3821 13.9249 13.8828V17.1038H18.3956V9.94028H4.20226V17.1038ZM3.83996 8.12705H5.62511L6.43566 2.37573H5.18175L3.83996 8.12705ZM10.7511 8.12705H12.2697L12.0568 2.37573H10.9288L10.7511 8.12705ZM17.131 8.12705H18.7472L17.1671 2.37573H16.3439L17.131 8.12705Z" fill="#A44ED3"/>
</svg>
