<svg width="22" height="22" viewBox="0 0 22 22" fill="none" xmlns="http://www.w3.org/2000/svg">
    <path d="M0.435711 4.87671C-0.0162147 5.30475 0.175746 6.03316 0.435711 6.22143L5.50354 11.1052C7.02482 11.8899 8.12575 11.4321 8.48605 11.1052L9.42684 12.026L3.76208 17.6107C3.265 18.1411 2.56908 19.5003 3.76208 20.6933C4.95508 21.8863 6.16744 20.8701 6.62449 20.2129L11.989 14.7683L17.0332 20.2129C17.6504 20.7633 19.147 21.602 20.1959 20.5531C21.2448 19.5043 20.6329 18.2612 20.1959 17.7708L14.2509 12.026C15.7882 12.1861 17.5124 11.4575 18.0395 10.9771C19.1924 10.0002 20.3076 8.16179 20.9214 7.10757C21.7074 5.49527 21.788 2.25151 20.9214 1.0826C20.0548 -0.449082 18.8681 0.482946 18.3343 0.976694L14.4911 4.87671C13.0659 6.29929 12.843 7.0432 12.9098 7.23734C12.8777 8.69086 12.3626 9.43405 12.1091 9.62396L11.0682 8.68317C12.6455 7.10584 11.2851 5.23694 10.4077 4.49965L6.60447 0.796701C6.23986 0.491998 5.52207 -0.135358 4.89723 0.496011C4.29391 1.10564 4.81673 1.72819 5.08319 2.03757L8.0657 4.87671C8.22917 5.01457 8.45803 5.38838 8.0657 5.78071C7.67337 6.17304 7.24834 5.94418 7.08487 5.78071L4.12239 2.97818C3.75541 2.69138 3.18677 1.95249 2.50102 2.63823C1.81528 3.32398 2.52436 3.86012 2.79625 4.21084L5.71065 7.23734C5.79838 7.4247 5.9212 7.85207 5.71065 8.06262C5.50011 8.27317 5.08064 8.15035 4.89723 8.06262L1.85274 4.87671C1.64036 4.61674 0.937161 4.40176 0.435711 4.87671Z" fill="#FFA49D"/>
</svg>
