<svg width="23" height="21" viewBox="0 0 23 21" fill="none" xmlns="http://www.w3.org/2000/svg">
    <path d="M4.99219 0.486328C5.43426 0.486328 5.82369 0.77664 5.9502 1.2002L6.75 3.88086H21.7812C22.0964 3.88087 22.3932 4.0299 22.582 4.28223C22.7471 4.50294 22.8123 4.78043 22.7666 5.04883L22.7402 5.16309L21.5059 9.36133L20.2715 13.5586C20.1464 13.984 19.7559 14.2762 19.3125 14.2764H8.78516C8.75168 14.3015 8.71638 14.331 8.68164 14.3643C8.54519 14.495 8.46973 14.6328 8.46973 14.8018C8.46979 15.0676 8.55486 15.2013 8.62695 15.2822C8.66842 15.3287 8.71597 15.3666 8.7627 15.3984H19.3125L19.4141 15.4033C19.9184 15.4544 20.3125 15.8806 20.3125 16.3984C20.3124 16.906 19.9334 17.3233 19.4434 17.3877C19.76 17.7691 19.9512 18.2585 19.9512 18.793C19.9512 20.0092 18.9652 20.9951 17.749 20.9951C16.5328 20.9951 15.5469 20.0092 15.5469 18.793C15.5469 18.2637 15.7338 17.7782 16.0449 17.3984H10.6953C11.0065 17.7782 11.1934 18.2637 11.1934 18.793C11.1934 20.0092 10.2074 20.9951 8.99121 20.9951C7.775 20.9951 6.78906 20.0092 6.78906 18.793C6.78906 18.085 7.12439 17.4566 7.64355 17.0537C7.13159 16.7054 6.46983 16.0237 6.46973 14.8018C6.46973 13.913 6.91447 13.2872 7.29785 12.9199C7.31368 12.9048 7.32994 12.8904 7.3457 12.876L6.29883 9.36523L5.04688 5.16699L4.24707 2.48633H1.71875C1.16647 2.48633 0.71875 2.03861 0.71875 1.48633C0.71875 0.934043 1.16647 0.486328 1.71875 0.486328H4.99219ZM9.25488 12.2764H11.0352L10.793 10.0791H8.59961L9.25488 12.2764ZM13.0469 12.2764H14.8193L15.0215 10.0791H12.8047L13.0469 12.2764ZM16.8281 12.2764H18.5635L19.21 10.0791H17.0293L16.8281 12.2764ZM8.00293 8.0791H10.5723L10.3291 5.88086H7.34668L8.00293 8.0791ZM12.584 8.0791H15.2051L15.4072 5.88086H12.3418L12.584 8.0791ZM17.2139 8.0791H19.7979L20.4453 5.88086H17.416L17.2139 8.0791Z" fill="#44C2B4"/>
</svg>
