<svg width="45" height="57" viewBox="0 0 45 57" fill="none" xmlns="http://www.w3.org/2000/svg">
    <mask id="path-1-inside-1_2391_9751" fill="white">
        <path d="M22.1367 0.978516C33.6866 0.978603 44.1366 9.96786 44.1367 23.8701C44.1367 33.1385 36.7942 44.1104 22.1367 56.8125C7.47922 44.1104 0.136719 33.1385 0.136719 23.8701C0.136871 9.96779 10.5868 0.978516 22.1367 0.978516Z"/>
    </mask>
    <path d="M22.1367 0.978516C33.6866 0.978603 44.1366 9.96786 44.1367 23.8701C44.1367 33.1385 36.7942 44.1104 22.1367 56.8125C7.47922 44.1104 0.136719 33.1385 0.136719 23.8701C0.136871 9.96779 10.5868 0.978516 22.1367 0.978516Z" fill="white"/>
    <path d="M22.1367 0.978516L22.1367 -0.0214844H22.1367V0.978516ZM44.1367 23.8701H45.1367V23.8701L44.1367 23.8701ZM22.1367 56.8125L21.4818 57.5682L22.1367 58.1357L22.7916 57.5682L22.1367 56.8125ZM0.136719 23.8701L-0.863281 23.8701V23.8701H0.136719ZM22.1367 0.978516L22.1367 1.97852C33.151 1.9786 43.1366 10.5368 43.1367 23.8701L44.1367 23.8701L45.1367 23.8701C45.1366 9.39896 34.2221 -0.0213932 22.1367 -0.0214844L22.1367 0.978516ZM44.1367 23.8701H43.1367C43.1367 28.2388 41.4046 33.1061 37.8018 38.4981C34.201 43.8871 28.7717 49.7394 21.4818 56.0568L22.1367 56.8125L22.7916 57.5682C30.1593 51.1835 35.7299 45.1988 39.4648 39.6092C43.1976 34.0226 45.1367 28.7697 45.1367 23.8701H44.1367ZM22.1367 56.8125L22.7916 56.0568C15.5018 49.7394 10.0724 43.8871 6.47163 38.4981C2.86885 33.1061 1.13672 28.2388 1.13672 23.8701H0.136719H-0.863281C-0.863281 28.7697 1.07583 34.0226 4.80869 39.6092C8.54353 45.1988 14.1142 51.1835 21.4818 57.5682L22.1367 56.8125ZM0.136719 23.8701L1.13672 23.8701C1.13686 10.5367 11.1223 1.97852 22.1367 1.97852V0.978516V-0.0214844C10.0513 -0.0214844 -0.863123 9.3989 -0.863281 23.8701L0.136719 23.8701Z" fill="#FFA49D" mask="url(#path-1-inside-1_2391_9751)"/>
    <path d="M10.381 15.1404C9.9291 15.5684 10.1211 16.2968 10.381 16.4851L15.4489 21.3689C16.9701 22.1535 18.0711 21.6958 18.4314 21.3689L19.3722 22.2896L13.7074 27.8743C13.2103 28.4048 12.5144 29.7639 13.7074 30.9569C14.9004 32.1499 16.1127 31.1337 16.5698 30.4765L21.9343 25.0319L26.9785 30.4765C27.5957 31.027 29.0923 31.8657 30.1412 30.8168C31.1901 29.7679 30.5782 28.5249 30.1412 28.0345L24.1962 22.2896C25.7335 22.4498 27.4577 21.7211 27.9848 21.2407C29.1377 20.2639 30.2529 18.4255 30.8667 17.3712C31.6527 15.7589 31.7334 12.5152 30.8667 11.3463C30.0001 9.81459 28.8134 10.7466 28.2796 11.2404L24.4364 15.1404C23.0112 16.563 22.7884 17.3069 22.8551 17.501C22.8231 18.9545 22.308 19.6977 22.0544 19.8876L21.0135 18.9468C22.5909 17.3695 21.2304 15.5006 20.353 14.7633L16.5498 11.0604C16.1852 10.7557 15.4674 10.1283 14.8425 10.7597C14.2392 11.3693 14.762 11.9919 15.0285 12.3012L18.011 15.1404C18.1745 15.2782 18.4033 15.6521 18.011 16.0444C17.6187 16.4367 17.1937 16.2079 17.0302 16.0444L14.0677 13.2418C13.7007 12.9551 13.1321 12.2162 12.4463 12.9019C11.7606 13.5877 12.4697 14.1238 12.7416 14.4745L15.656 17.501C15.7437 17.6884 15.8665 18.1157 15.656 18.3263C15.4454 18.5368 15.026 18.414 14.8425 18.3263L11.798 15.1404C11.5857 14.8804 10.8825 14.6654 10.381 15.1404Z" fill="#FFA49D"/>
</svg>
