<svg width="45" height="56" viewBox="0 0 45 56" fill="none" xmlns="http://www.w3.org/2000/svg">
    <ellipse cx="16.5" cy="15.5" rx="16.5" ry="15.5" transform="matrix(1 0 0 -1 5 39)" fill="white"/>
    <path d="M22.7227 0C34.2725 8.7092e-05 44.7225 8.98934 44.7227 22.8916C44.7227 32.1599 37.3802 43.1319 22.7227 55.834C8.06516 43.1319 0.722656 32.1599 0.722656 22.8916C0.722808 8.98928 11.1727 0 22.7227 0ZM14.5166 24.9932C13.3337 24.9932 13.1857 25.6063 13.6816 26.6641C14.1477 27.6568 16.0671 28.5539 17.126 28.8242H26.709C27.2875 28.8241 28.8096 28.4678 30.2695 27.0439C31.729 25.6203 30.741 25.0834 30.0645 24.9932H14.5166ZM16.9531 12.4424C16.2175 12.4425 15.549 13.078 15.3506 13.9971V19.3975C15.3278 21.0499 16.2795 24.3398 19.4521 24.3398H25.4648C26.4282 24.1047 27.515 23.3439 28.127 21.7939C29.772 21.6062 33.084 21.4327 33.084 17.5928C33.0839 16.8336 32.6001 13.8675 28.8916 13.9971C28.8914 12.9708 28.1203 12.4425 27.3682 12.4424H16.9531ZM28.7227 16.1729C30.2128 15.9991 30.828 16.8804 30.8281 17.8555C30.8281 19.47 29.3714 19.5028 28.7227 19.7041V16.1729Z" fill="#FFA827"/>
    <path d="M35.9941 39.7549L36.1064 40.1006H42.9229L37.7021 43.8936L37.4082 44.1074L37.5205 44.4531L39.5146 50.5898L34.2939 46.7969L34 46.584L33.7061 46.7969L28.4844 50.5898L30.4795 44.4531L30.5918 44.1074L30.2979 43.8936L25.0771 40.1006H31.8936L32.0059 39.7549L34 33.6172L35.9941 39.7549Z" fill="#FFA827" stroke="black"/>
</svg>
