<svg width="45" height="57" viewBox="0 0 45 57" fill="none" xmlns="http://www.w3.org/2000/svg">
    <mask id="path-1-inside-1_2391_9753" fill="white">
        <path d="M22.3594 0.25C33.9092 0.250087 44.3592 9.23934 44.3594 23.1416C44.3594 32.4099 37.0169 43.3819 22.3594 56.084C7.70188 43.3819 0.359375 32.4099 0.359375 23.1416C0.359527 9.23927 10.8095 0.25 22.3594 0.25Z"/>
    </mask>
    <path d="M22.3594 0.25C33.9092 0.250087 44.3592 9.23934 44.3594 23.1416C44.3594 32.4099 37.0169 43.3819 22.3594 56.084C7.70188 43.3819 0.359375 32.4099 0.359375 23.1416C0.359527 9.23927 10.8095 0.25 22.3594 0.25Z" fill="white"/>
    <path d="M22.3594 0.25L22.3594 -0.75H22.3594V0.25ZM44.3594 23.1416H45.3594V23.1416L44.3594 23.1416ZM22.3594 56.084L21.7045 56.8397L22.3594 57.4072L23.0143 56.8397L22.3594 56.084ZM0.359375 23.1416L-0.640625 23.1416V23.1416H0.359375ZM22.3594 0.25L22.3594 1.25C33.3737 1.25008 43.3592 9.80824 43.3594 23.1416L44.3594 23.1416L45.3594 23.1416C45.3592 8.67045 34.4448 -0.749909 22.3594 -0.75L22.3594 0.25ZM44.3594 23.1416H43.3594C43.3594 27.5103 41.6272 32.3776 38.0245 37.7696C34.4237 43.1585 28.9943 49.0109 21.7045 55.3283L22.3594 56.084L23.0143 56.8397C30.3819 50.455 35.9526 44.4703 39.6874 38.8807C43.4203 33.2941 45.3594 28.0412 45.3594 23.1416H44.3594ZM22.3594 56.084L23.0143 55.3283C15.7244 49.0109 10.2951 43.1585 6.69428 37.7696C3.09151 32.3776 1.35938 27.5103 1.35938 23.1416H0.359375H-0.640625C-0.640625 28.0412 1.29849 33.2941 5.03134 38.8807C8.76619 44.4703 14.3368 50.455 21.7045 56.8397L22.3594 56.084ZM0.359375 23.1416L1.35938 23.1416C1.35952 9.80816 11.345 1.25 22.3594 1.25V0.25V-0.75C10.2739 -0.75 -0.640467 8.67039 -0.640625 23.1416L0.359375 23.1416Z" fill="#FFA827" mask="url(#path-1-inside-1_2391_9753)"/>
    <path d="M29.7012 26.5391C30.3777 26.6292 31.3661 27.1659 29.9062 28.5898C28.4462 30.0139 26.9241 30.3701 26.3457 30.3701H16.7627C15.7038 30.0998 13.7843 29.2027 13.3184 28.21C12.8224 27.1522 12.9704 26.5391 14.1533 26.5391H29.7012ZM27.0049 13.9883C27.7571 13.9883 28.5282 14.5166 28.5283 15.543C32.2371 15.4133 32.7206 18.3794 32.7207 19.1387C32.7207 22.9787 29.4087 23.1521 27.7637 23.3398C27.1517 24.8899 26.065 25.6506 25.1016 25.8857H19.0889C15.9162 25.8857 14.9645 22.5958 14.9873 20.9434V15.543C15.1857 14.6239 15.8542 13.9884 16.5898 13.9883H27.0049ZM28.3594 17.7188V21.25C29.008 21.0486 30.4648 21.016 30.4648 19.4014C30.4647 18.4263 29.8497 17.5449 28.3594 17.7188Z" fill="#FFA827"/>
</svg>
