<svg width="51" height="56" viewBox="0 0 51 56" fill="none" xmlns="http://www.w3.org/2000/svg">
    <ellipse cx="16.5" cy="15.5" rx="16.5" ry="15.5" transform="matrix(1 0 0 -1 5 39)" fill="white"/>
    <path d="M22.7227 0C34.2725 8.7092e-05 44.7225 8.98934 44.7227 22.8916C44.7227 32.1599 37.3802 43.1319 22.7227 55.834C8.06516 43.1319 0.722656 32.1599 0.722656 22.8916C0.722808 8.98928 11.1727 0 22.7227 0ZM14.5166 24.9932C13.3337 24.9932 13.1857 25.6063 13.6816 26.6641C14.1477 27.6568 16.0671 28.5539 17.126 28.8242H26.709C27.2875 28.8241 28.8096 28.4678 30.2695 27.0439C31.729 25.6203 30.741 25.0834 30.0645 24.9932H14.5166ZM16.9531 12.4424C16.2175 12.4425 15.549 13.078 15.3506 13.9971V19.3975C15.3278 21.0499 16.2795 24.3398 19.4521 24.3398H25.4648C26.4282 24.1047 27.515 23.3439 28.127 21.7939C29.772 21.6062 33.084 21.4327 33.084 17.5928C33.0839 16.8336 32.6001 13.8675 28.8916 13.9971C28.8914 12.9708 28.1203 12.4425 27.3682 12.4424H16.9531ZM28.7227 16.1729C30.2128 15.9991 30.828 16.8804 30.8281 17.8555C30.8281 19.47 29.3714 19.5028 28.7227 19.7041V16.1729Z" fill="#FFA827"/>
    <path d="M38 30.7363C38.0219 30.7363 38.0619 30.7379 38.1406 30.8164C38.2318 30.9074 38.3444 31.0734 38.4785 31.3555C38.7477 31.9217 39.0301 32.7879 39.4268 34.0088L40.4434 37.1377C40.548 37.4596 40.6387 37.7414 40.7402 37.9639C40.8339 38.1691 40.9519 38.36 41.1318 38.5146L41.2129 38.5781C41.4393 38.7426 41.6864 38.8085 41.9424 38.8379C42.1854 38.8658 42.4816 38.8643 42.8203 38.8643H46.1104C47.3941 38.8643 48.305 38.8662 48.9268 38.9473C49.2367 38.9877 49.4293 39.043 49.5439 39.1016C49.5935 39.1269 49.622 39.1487 49.6387 39.167L49.6641 39.21C49.6708 39.2308 49.681 39.2693 49.6309 39.3682C49.5726 39.483 49.4497 39.6415 49.2227 39.8564C48.7673 40.2875 48.0309 40.8235 46.9922 41.5781L44.3311 43.5117C44.0569 43.7109 43.8161 43.8843 43.6357 44.0498C43.4698 44.2021 43.3259 44.3733 43.2344 44.5918L43.1982 44.6885C43.1118 44.9546 43.1256 45.2105 43.1768 45.4629C43.2011 45.5829 43.236 45.7137 43.2783 45.8545L43.4229 46.3066L44.4395 49.4355C44.8362 50.6566 45.1164 51.5233 45.2314 52.1396C45.2888 52.447 45.2957 52.6473 45.2754 52.7744C45.2666 52.8294 45.2544 52.8633 45.2422 52.8848L45.209 52.9219C45.1912 52.9348 45.1577 52.9567 45.0479 52.9395C44.9207 52.9195 44.7324 52.8515 44.458 52.7021C43.9073 52.4023 43.1696 51.867 42.1309 51.1123L39.4697 49.1787C39.1956 48.9796 38.9562 48.8049 38.7432 48.6846C38.547 48.5738 38.3396 48.4892 38.1035 48.4697L38 48.4658C37.7201 48.4658 37.4812 48.5579 37.2568 48.6846C37.1504 48.7447 37.0376 48.8188 36.917 48.9023L36.5303 49.1787L33.8691 51.1123C32.8304 51.867 32.0927 52.4023 31.542 52.7021C31.2676 52.8515 31.0793 52.9195 30.9521 52.9395C30.8969 52.9481 30.8611 52.9464 30.8369 52.9414L30.791 52.9219C30.7732 52.9089 30.7421 52.8838 30.7246 52.7744C30.7043 52.6473 30.7112 52.447 30.7686 52.1396C30.8836 51.5233 31.1638 50.6566 31.5605 49.4355L32.5771 46.3066C32.6818 45.9844 32.7746 45.7027 32.8232 45.4629C32.868 45.242 32.8846 45.0187 32.8301 44.7881L32.8018 44.6885C32.7152 44.4225 32.554 44.2239 32.3643 44.0498C32.2741 43.9671 32.1686 43.8829 32.0518 43.7939L31.6689 43.5117L29.0078 41.5781C27.9691 40.8235 27.2327 40.2875 26.7773 39.8564C26.5503 39.6415 26.4274 39.483 26.3691 39.3682C26.319 39.2693 26.3292 39.2308 26.3359 39.21C26.3427 39.1891 26.3573 39.1521 26.4561 39.1016C26.5707 39.043 26.7633 38.9877 27.0732 38.9473C27.695 38.8662 28.6059 38.8643 29.8896 38.8643H33.1797C33.5184 38.8643 33.8146 38.8658 34.0576 38.8379C34.2815 38.8122 34.4987 38.7587 34.7012 38.6357L34.7871 38.5781C35.0136 38.4136 35.1527 38.1983 35.2598 37.9639C35.3613 37.7414 35.452 37.4596 35.5566 37.1377L36.5732 34.0088C36.9699 32.7879 37.2523 31.9217 37.5215 31.3555C37.6556 31.0734 37.7682 30.9074 37.8594 30.8164C37.9381 30.7379 37.9781 30.7363 38 30.7363Z" fill="#FFFF00" stroke="black"/>
</svg>
