<svg width="44" height="56" viewBox="0 0 44 56" fill="none" xmlns="http://www.w3.org/2000/svg">
    <path d="M22 0C33.5498 8.7092e-05 43.9998 8.98934 44 22.8916C44 32.1599 36.6575 43.1319 22 55.834C7.3425 43.1319 0 32.1599 0 22.8916C0.000152142 8.98928 10.4501 0 22 0Z" fill="#FF0004"/>
    <path fill-rule="evenodd" clip-rule="evenodd" d="M31.1746 15.0034C29.0661 12.8943 25.6495 12.8943 23.541 15.0034L22.3798 16.165L21.2153 14.9986C19.1069 12.8911 15.6886 12.8911 13.5801 14.9986C11.4733 17.1077 11.4733 20.5271 13.5801 22.6346L14.7462 23.801L14.7446 23.8026L22.3798 31.4386L31.1746 22.6394C33.283 20.5319 33.283 17.1109 31.1746 15.0034" fill="white"/>
</svg>
