<svg width="49" height="57" viewBox="0 0 49 57" fill="none" xmlns="http://www.w3.org/2000/svg">
    <ellipse cx="16.5" cy="15.5" rx="16.5" ry="15.5" transform="matrix(1 0 0 -1 6 39)" fill="white"/>
    <path d="M22.5078 0.255859C34.0577 0.255946 44.5077 9.2452 44.5078 23.1475C44.5078 32.4158 37.1653 43.3878 22.5078 56.0898C7.85031 43.3878 0.507812 32.4158 0.507812 23.1475C0.507965 9.24513 10.9579 0.255859 22.5078 0.255859ZM14.5654 11.292C14.187 11.2922 13.846 11.4852 13.6768 11.7832L13.6152 11.917L11.6465 17.3877C11.4256 17.8509 11.3918 18.3281 11.5557 18.7773C11.719 19.2245 12.0448 19.5593 12.3623 19.7979C12.7281 20.0727 13.1614 20.2762 13.5654 20.4219V28.7402C13.5656 29.2406 14.0135 29.6462 14.5654 29.6465H30.7588C31.3109 29.6464 31.7586 29.2407 31.7588 28.7402V20.4326C32.4536 20.1678 32.9432 19.7511 33.2383 19.249C33.565 18.6926 33.6073 18.109 33.5332 17.6689L33.4951 17.4893L33.4824 17.4473L31.7188 11.9453C31.6101 11.6068 31.2971 11.3611 30.9229 11.3047L30.7588 11.292H14.5654ZM29.7588 20.6699V27.833H25.2881V24.6123C25.2881 24.1116 24.8404 23.7061 24.2881 23.7061H20.7256C20.1734 23.7062 19.7256 24.1117 19.7256 24.6123V27.833H15.5654V20.6699H29.7588ZM17.7988 13.1055L16.9883 18.8564H15.2031L16.5449 13.1055H17.7988ZM23.4199 13.1055L23.6328 18.8564H22.1143L22.292 13.1055H23.4199ZM28.5303 13.1055L30.1104 18.8564H28.4941L27.707 13.1055H28.5303Z" fill="#A44ED3"/>
    <path d="M36 30.7363C36.0219 30.7363 36.0619 30.7379 36.1406 30.8164C36.2318 30.9074 36.3444 31.0734 36.4785 31.3555C36.7477 31.9217 37.0301 32.7879 37.4268 34.0088L38.4434 37.1377C38.548 37.4596 38.6387 37.7414 38.7402 37.9639C38.8339 38.1691 38.9519 38.36 39.1318 38.5146L39.2129 38.5781C39.4393 38.7426 39.6864 38.8085 39.9424 38.8379C40.1854 38.8658 40.4816 38.8643 40.8203 38.8643H44.1104C45.3941 38.8643 46.305 38.8662 46.9268 38.9473C47.2367 38.9877 47.4293 39.043 47.5439 39.1016C47.5935 39.1269 47.622 39.1487 47.6387 39.167L47.6641 39.21C47.6708 39.2308 47.681 39.2693 47.6309 39.3682C47.5726 39.483 47.4497 39.6415 47.2227 39.8564C46.7673 40.2875 46.0309 40.8235 44.9922 41.5781L42.3311 43.5117C42.0569 43.7109 41.8161 43.8843 41.6357 44.0498C41.4698 44.2021 41.3259 44.3733 41.2344 44.5918L41.1982 44.6885C41.1118 44.9546 41.1256 45.2105 41.1768 45.4629C41.2011 45.5829 41.236 45.7137 41.2783 45.8545L41.4229 46.3066L42.4395 49.4355C42.8362 50.6566 43.1164 51.5233 43.2314 52.1396C43.2888 52.447 43.2957 52.6473 43.2754 52.7744C43.2666 52.8294 43.2544 52.8633 43.2422 52.8848L43.209 52.9219C43.1912 52.9348 43.1577 52.9567 43.0479 52.9395C42.9207 52.9195 42.7324 52.8515 42.458 52.7021C41.9073 52.4023 41.1696 51.867 40.1309 51.1123L37.4697 49.1787C37.1956 48.9796 36.9562 48.8049 36.7432 48.6846C36.547 48.5738 36.3396 48.4892 36.1035 48.4697L36 48.4658C35.7201 48.4658 35.4812 48.5579 35.2568 48.6846C35.1504 48.7447 35.0376 48.8188 34.917 48.9023L34.5303 49.1787L31.8691 51.1123C30.8304 51.867 30.0927 52.4023 29.542 52.7021C29.2676 52.8515 29.0793 52.9195 28.9521 52.9395C28.8969 52.9481 28.8611 52.9464 28.8369 52.9414L28.791 52.9219C28.7732 52.9089 28.7421 52.8838 28.7246 52.7744C28.7043 52.6473 28.7112 52.447 28.7686 52.1396C28.8836 51.5233 29.1638 50.6566 29.5605 49.4355L30.5771 46.3066C30.6818 45.9844 30.7746 45.7027 30.8232 45.4629C30.868 45.242 30.8846 45.0187 30.8301 44.7881L30.8018 44.6885C30.7152 44.4225 30.554 44.2239 30.3643 44.0498C30.2741 43.9671 30.1686 43.8829 30.0518 43.7939L29.6689 43.5117L27.0078 41.5781C25.9691 40.8235 25.2327 40.2875 24.7773 39.8564C24.5503 39.6415 24.4274 39.483 24.3691 39.3682C24.319 39.2693 24.3292 39.2308 24.3359 39.21C24.3427 39.1891 24.3573 39.1521 24.4561 39.1016C24.5707 39.043 24.7633 38.9877 25.0732 38.9473C25.695 38.8662 26.6059 38.8643 27.8896 38.8643H31.1797C31.5184 38.8643 31.8146 38.8658 32.0576 38.8379C32.2815 38.8122 32.4987 38.7587 32.7012 38.6357L32.7871 38.5781C33.0136 38.4136 33.1527 38.1983 33.2598 37.9639C33.3613 37.7414 33.452 37.4596 33.5566 37.1377L34.5732 34.0088C34.9699 32.7879 35.2523 31.9217 35.5215 31.3555C35.6556 31.0734 35.7682 30.9074 35.8594 30.8164C35.9381 30.7379 35.9781 30.7363 36 30.7363Z" fill="#FFFF00" stroke="black"/>
</svg>
