<svg width="45" height="57" viewBox="0 0 45 57" fill="none" xmlns="http://www.w3.org/2000/svg">
    <mask id="path-1-inside-1_2391_9754" fill="white">
        <path d="M22.1445 0.503906C33.6944 0.503993 44.1444 9.49325 44.1445 23.3955C44.1445 32.6638 36.802 43.6358 22.1445 56.3379C7.48703 43.6358 0.144531 32.6638 0.144531 23.3955C0.144683 9.49318 10.5946 0.503906 22.1445 0.503906Z"/>
    </mask>
    <path d="M22.1445 0.503906C33.6944 0.503993 44.1444 9.49325 44.1445 23.3955C44.1445 32.6638 36.802 43.6358 22.1445 56.3379C7.48703 43.6358 0.144531 32.6638 0.144531 23.3955C0.144683 9.49318 10.5946 0.503906 22.1445 0.503906Z" fill="white"/>
    <path d="M22.1445 0.503906L22.1445 -0.496094H22.1445V0.503906ZM44.1445 23.3955H45.1445V23.3955L44.1445 23.3955ZM22.1445 56.3379L21.4896 57.0936L22.1445 57.6611L22.7994 57.0936L22.1445 56.3379ZM0.144531 23.3955L-0.855469 23.3955V23.3955H0.144531ZM22.1445 0.503906L22.1445 1.50391C33.1588 1.50399 43.1444 10.0621 43.1445 23.3955L44.1445 23.3955L45.1445 23.3955C45.1444 8.92436 34.2299 -0.496003 22.1445 -0.496094L22.1445 0.503906ZM44.1445 23.3955H43.1445C43.1445 27.7642 41.4124 32.6315 37.8096 38.0235C34.2088 43.4124 28.7795 49.2648 21.4896 55.5822L22.1445 56.3379L22.7994 57.0936C30.1671 50.7089 35.7377 44.7242 39.4726 39.1346C43.2054 33.548 45.1445 28.2951 45.1445 23.3955H44.1445ZM22.1445 56.3379L22.7994 55.5822C15.5096 49.2648 10.0802 43.4124 6.47944 38.0235C2.87667 32.6315 1.14453 27.7642 1.14453 23.3955H0.144531H-0.855469C-0.855469 28.2951 1.08365 33.548 4.8165 39.1346C8.55134 44.7242 14.122 50.7089 21.4896 57.0936L22.1445 56.3379ZM0.144531 23.3955L1.14453 23.3955C1.14468 10.0621 11.1302 1.50391 22.1445 1.50391V0.503906V-0.496094C10.0591 -0.496094 -0.85531 8.92429 -0.855469 23.3955L0.144531 23.3955Z" fill="#A44ED3" mask="url(#path-1-inside-1_2391_9754)"/>
    <path d="M30.5597 12.5749C30.934 12.6313 31.2469 12.8773 31.3556 13.2159L33.1193 18.7176L33.132 18.7601L33.17 18.9398C33.2442 19.3799 33.2019 19.9629 32.8751 20.5193C32.5801 21.0215 32.0906 21.4381 31.3956 21.703V30.0104C31.3956 30.511 30.9478 30.9169 30.3956 30.917H14.2023C13.6502 30.9168 13.2023 30.511 13.2023 30.0104V21.6924C12.7982 21.5467 12.365 21.3431 11.9991 21.0682C11.6816 20.8296 11.3557 20.4947 11.1925 20.0474C11.0286 19.5981 11.0625 19.1214 11.2833 18.6582L13.2521 13.1876L13.3136 13.0539C13.4828 12.7558 13.8238 12.5626 14.2023 12.5625H30.3956L30.5597 12.5749ZM15.2023 29.1038H19.3624V25.8828C19.3624 25.3821 19.8102 24.9763 20.3624 24.9762H23.9249C24.4772 24.9762 24.9249 25.3821 24.9249 25.8828V29.1038H29.3956V21.9403H15.2023V29.1038ZM14.84 20.1271H16.6251L17.4357 14.3757H16.1818L14.84 20.1271ZM21.7511 20.1271H23.2697L23.0568 14.3757H21.9288L21.7511 20.1271ZM28.131 20.1271H29.7472L28.1671 14.3757H27.3439L28.131 20.1271Z" fill="#A44ED3"/>
</svg>
