<svg width="45" height="57" viewBox="0 0 45 57" fill="none" xmlns="http://www.w3.org/2000/svg">
    <ellipse cx="16.5" cy="15.5" rx="16.5" ry="15.5" transform="matrix(1 0 0 -1 6 39)" fill="white"/>
    <path d="M22.5078 0.255859C34.0577 0.255946 44.5077 9.2452 44.5078 23.1475C44.5078 32.4158 37.1653 43.3878 22.5078 56.0898C7.85031 43.3878 0.507812 32.4158 0.507812 23.1475C0.507965 9.24513 10.9579 0.255859 22.5078 0.255859ZM14.5654 11.292C14.187 11.2922 13.846 11.4852 13.6768 11.7832L13.6152 11.917L11.6465 17.3877C11.4256 17.8509 11.3918 18.3281 11.5557 18.7773C11.719 19.2245 12.0448 19.5593 12.3623 19.7979C12.7281 20.0727 13.1614 20.2762 13.5654 20.4219V28.7402C13.5656 29.2406 14.0135 29.6462 14.5654 29.6465H30.7588C31.3109 29.6464 31.7586 29.2407 31.7588 28.7402V20.4326C32.4536 20.1678 32.9432 19.7511 33.2383 19.249C33.565 18.6926 33.6073 18.109 33.5332 17.6689L33.4951 17.4893L33.4824 17.4473L31.7188 11.9453C31.6101 11.6068 31.2971 11.3611 30.9229 11.3047L30.7588 11.292H14.5654ZM29.7588 20.6699V27.833H25.2881V24.6123C25.2881 24.1116 24.8404 23.7061 24.2881 23.7061H20.7256C20.1734 23.7062 19.7256 24.1117 19.7256 24.6123V27.833H15.5654V20.6699H29.7588ZM17.7988 13.1055L16.9883 18.8564H15.2031L16.5449 13.1055H17.7988ZM23.4199 13.1055L23.6328 18.8564H22.1143L22.292 13.1055H23.4199ZM28.5303 13.1055L30.1104 18.8564H28.4941L27.707 13.1055H28.5303Z" fill="#A44ED3"/>
    <path d="M33.9941 39.7549L34.1064 40.1006H40.9229L35.7021 43.8936L35.4082 44.1074L35.5205 44.4531L37.5146 50.5898L32.2939 46.7969L32 46.584L31.7061 46.7969L26.4844 50.5898L28.4795 44.4531L28.5918 44.1074L28.2979 43.8936L23.0771 40.1006H29.8936L30.0059 39.7549L32 33.6172L33.9941 39.7549Z" fill="#FFA827" stroke="black"/>
</svg>
