<svg width="51" height="57" viewBox="0 0 51 57" fill="none" xmlns="http://www.w3.org/2000/svg">
    <ellipse cx="16.5" cy="15.5" rx="16.5" ry="15.5" transform="matrix(1 0 0 -1 5 39)" fill="white"/>
    <path d="M22.418 0.203125C33.9678 0.203212 44.4178 9.19247 44.418 23.0947C44.4178 32.363 37.0753 43.3351 22.418 56.0371C7.76061 43.3351 0.418109 32.363 0.417969 23.0947C0.418121 9.19241 10.8681 0.203134 22.418 0.203125ZM17.1709 11.5049C16.8063 11.2002 16.0887 10.5727 15.4639 11.2041C14.8608 11.8136 15.3829 12.4357 15.6494 12.7451L18.6318 15.584C18.7953 15.7218 19.0242 16.096 18.6318 16.4883C18.2395 16.8805 17.8148 16.6517 17.6514 16.4883L14.6885 13.6855C14.3215 13.3986 13.7528 12.6604 13.0674 13.3457C12.3816 14.0315 13.0904 14.5682 13.3623 14.9189L16.2773 17.9453C16.3651 18.1328 16.4877 18.56 16.2773 18.7705C16.0669 18.981 15.6474 18.8582 15.4639 18.7705L12.4189 15.584C12.2062 15.3242 11.5031 15.1094 11.002 15.584C10.5502 16.0118 10.7422 16.74 11.002 16.9287L16.0703 21.8125C17.5915 22.5971 18.6924 22.1394 19.0527 21.8125L19.9932 22.7334L14.3281 28.3184C13.8311 28.8489 13.1353 30.2085 14.3281 31.4014C15.5209 32.5941 16.7331 31.5781 17.1904 30.9209L22.5557 25.4756L27.5996 30.9209C28.2169 31.4714 29.7139 32.3096 30.7627 31.2607C31.8111 30.212 31.1997 28.969 30.7627 28.4785L24.8174 22.7334C26.3546 22.8935 28.0782 22.165 28.6055 21.6846C29.7584 20.7077 30.8744 18.8696 31.4883 17.8154C32.2742 16.2031 32.3549 12.9589 31.4883 11.79C30.6217 10.2584 29.4342 11.1908 28.9004 11.6846L25.0576 15.584C23.6324 17.0066 23.4098 17.7512 23.4766 17.9453C23.4445 19.3987 22.9293 20.1421 22.6758 20.332L21.6348 19.3906C23.2118 17.8133 21.851 15.9443 20.9736 15.207L17.1709 11.5049Z" fill="#FFA49D"/>
    <path d="M38 28.7363C38.0219 28.7363 38.0619 28.7379 38.1406 28.8164C38.2318 28.9074 38.3444 29.0734 38.4785 29.3555C38.7477 29.9217 39.0301 30.7879 39.4268 32.0088L40.4434 35.1377C40.548 35.4596 40.6387 35.7414 40.7402 35.9639C40.8339 36.1691 40.9519 36.36 41.1318 36.5146L41.2129 36.5781C41.4393 36.7426 41.6864 36.8085 41.9424 36.8379C42.1854 36.8658 42.4816 36.8643 42.8203 36.8643H46.1104C47.3941 36.8643 48.305 36.8662 48.9268 36.9473C49.2367 36.9877 49.4293 37.043 49.5439 37.1016C49.5935 37.1269 49.622 37.1487 49.6387 37.167L49.6641 37.21C49.6708 37.2308 49.681 37.2693 49.6309 37.3682C49.5726 37.483 49.4497 37.6415 49.2227 37.8564C48.7673 38.2875 48.0309 38.8235 46.9922 39.5781L44.3311 41.5117C44.0569 41.7109 43.8161 41.8843 43.6357 42.0498C43.4698 42.2021 43.3259 42.3733 43.2344 42.5918L43.1982 42.6885C43.1118 42.9546 43.1256 43.2105 43.1768 43.4629C43.2011 43.5829 43.236 43.7137 43.2783 43.8545L43.4229 44.3066L44.4395 47.4355C44.8362 48.6566 45.1164 49.5233 45.2314 50.1396C45.2888 50.447 45.2957 50.6473 45.2754 50.7744C45.2666 50.8294 45.2544 50.8633 45.2422 50.8848L45.209 50.9219C45.1912 50.9348 45.1577 50.9567 45.0479 50.9395C44.9207 50.9195 44.7324 50.8515 44.458 50.7021C43.9073 50.4023 43.1696 49.867 42.1309 49.1123L39.4697 47.1787C39.1956 46.9796 38.9562 46.8049 38.7432 46.6846C38.547 46.5738 38.3396 46.4892 38.1035 46.4697L38 46.4658C37.7201 46.4658 37.4812 46.5579 37.2568 46.6846C37.1504 46.7447 37.0376 46.8188 36.917 46.9023L36.5303 47.1787L33.8691 49.1123C32.8304 49.867 32.0927 50.4023 31.542 50.7021C31.2676 50.8515 31.0793 50.9195 30.9521 50.9395C30.8969 50.9481 30.8611 50.9464 30.8369 50.9414L30.791 50.9219C30.7732 50.9089 30.7421 50.8838 30.7246 50.7744C30.7043 50.6473 30.7112 50.447 30.7686 50.1396C30.8836 49.5233 31.1638 48.6566 31.5605 47.4355L32.5771 44.3066C32.6818 43.9844 32.7746 43.7027 32.8232 43.4629C32.868 43.242 32.8846 43.0187 32.8301 42.7881L32.8018 42.6885C32.7152 42.4225 32.554 42.2239 32.3643 42.0498C32.2741 41.9671 32.1686 41.8829 32.0518 41.7939L31.6689 41.5117L29.0078 39.5781C27.9691 38.8235 27.2327 38.2875 26.7773 37.8564C26.5503 37.6415 26.4274 37.483 26.3691 37.3682C26.319 37.2693 26.3292 37.2308 26.3359 37.21C26.3427 37.1891 26.3573 37.1521 26.4561 37.1016C26.5707 37.043 26.7633 36.9877 27.0732 36.9473C27.695 36.8662 28.6059 36.8643 29.8896 36.8643H33.1797C33.5184 36.8643 33.8146 36.8658 34.0576 36.8379C34.2815 36.8122 34.4987 36.7587 34.7012 36.6357L34.7871 36.5781C35.0136 36.4136 35.1527 36.1983 35.2598 35.9639C35.3613 35.7414 35.452 35.4596 35.5566 35.1377L36.5732 32.0088C36.9699 30.7879 37.2523 29.9217 37.5215 29.3555C37.6556 29.0734 37.7682 28.9074 37.8594 28.8164C37.9381 28.7379 37.9781 28.7363 38 28.7363Z" fill="#FFFF00" stroke="black"/>
</svg>
