<svg width="45" height="57" viewBox="0 0 45 57" fill="none" xmlns="http://www.w3.org/2000/svg">
    <ellipse cx="16.5" cy="15.5" rx="16.5" ry="15.5" transform="matrix(1 0 0 -1 5 39)" fill="white"/>
    <path d="M22.418 0.203125C33.9678 0.203212 44.4178 9.19247 44.418 23.0947C44.4178 32.363 37.0753 43.3351 22.418 56.0371C7.76061 43.3351 0.418109 32.363 0.417969 23.0947C0.418121 9.19241 10.8681 0.203134 22.418 0.203125ZM17.1709 11.5049C16.8063 11.2002 16.0887 10.5727 15.4639 11.2041C14.8608 11.8136 15.3829 12.4357 15.6494 12.7451L18.6318 15.584C18.7953 15.7218 19.0242 16.096 18.6318 16.4883C18.2395 16.8805 17.8148 16.6517 17.6514 16.4883L14.6885 13.6855C14.3215 13.3986 13.7528 12.6604 13.0674 13.3457C12.3816 14.0315 13.0904 14.5682 13.3623 14.9189L16.2773 17.9453C16.3651 18.1328 16.4877 18.56 16.2773 18.7705C16.0669 18.981 15.6474 18.8582 15.4639 18.7705L12.4189 15.584C12.2062 15.3242 11.5031 15.1094 11.002 15.584C10.5502 16.0118 10.7422 16.74 11.002 16.9287L16.0703 21.8125C17.5915 22.5971 18.6924 22.1394 19.0527 21.8125L19.9932 22.7334L14.3281 28.3184C13.8311 28.8489 13.1353 30.2085 14.3281 31.4014C15.5209 32.5941 16.7331 31.5781 17.1904 30.9209L22.5557 25.4756L27.5996 30.9209C28.2169 31.4714 29.7139 32.3096 30.7627 31.2607C31.8111 30.212 31.1997 28.969 30.7627 28.4785L24.8174 22.7334C26.3546 22.8935 28.0782 22.165 28.6055 21.6846C29.7584 20.7077 30.8744 18.8696 31.4883 17.8154C32.2742 16.2031 32.3549 12.9589 31.4883 11.79C30.6217 10.2584 29.4342 11.1908 28.9004 11.6846L25.0576 15.584C23.6324 17.0066 23.4098 17.7512 23.4766 17.9453C23.4445 19.3987 22.9293 20.1421 22.6758 20.332L21.6348 19.3906C23.2118 17.8133 21.851 15.9443 20.9736 15.207L17.1709 11.5049Z" fill="#FFA49D"/>
    <path d="M35.9941 37.7549L36.1064 38.1006H42.9229L37.7021 41.8936L37.4082 42.1074L37.5205 42.4531L39.5146 48.5898L34.2939 44.7969L34 44.584L33.7061 44.7969L28.4844 48.5898L30.4795 42.4531L30.5918 42.1074L30.2979 41.8936L25.0771 38.1006H31.8936L32.0059 37.7549L34 31.6172L35.9941 37.7549Z" fill="#FFA827" stroke="black"/>
</svg>
