<svg width="45" height="57" viewBox="0 0 45 57" fill="none" xmlns="http://www.w3.org/2000/svg">
    <mask id="path-1-inside-1_2391_9752" fill="white">
        <path d="M22.4688 0.503906C34.0186 0.503993 44.4686 9.49325 44.4688 23.3955C44.4688 32.6638 37.1263 43.6358 22.4688 56.3379C7.81125 43.6358 0.46875 32.6638 0.46875 23.3955C0.468902 9.49318 10.9188 0.503906 22.4688 0.503906Z"/>
    </mask>
    <path d="M22.4688 0.503906C34.0186 0.503993 44.4686 9.49325 44.4688 23.3955C44.4688 32.6638 37.1263 43.6358 22.4688 56.3379C7.81125 43.6358 0.46875 32.6638 0.46875 23.3955C0.468902 9.49318 10.9188 0.503906 22.4688 0.503906Z" fill="white"/>
    <path d="M22.4688 0.503906L22.4688 -0.496094H22.4688V0.503906ZM44.4688 23.3955H45.4688V23.3955L44.4688 23.3955ZM22.4688 56.3379L21.8139 57.0936L22.4688 57.6611L23.1236 57.0936L22.4688 56.3379ZM0.46875 23.3955L-0.53125 23.3955V23.3955H0.46875ZM22.4688 0.503906L22.4687 1.50391C33.4831 1.50399 43.4686 10.0621 43.4688 23.3955L44.4688 23.3955L45.4688 23.3955C45.4686 8.92436 34.5541 -0.496003 22.4688 -0.496094L22.4688 0.503906ZM44.4688 23.3955H43.4688C43.4688 27.7642 41.7366 32.6315 38.1338 38.0235C34.5331 43.4124 29.1037 49.2648 21.8139 55.5822L22.4688 56.3379L23.1236 57.0936C30.4913 50.7089 36.0619 44.7242 39.7968 39.1346C43.5296 33.548 45.4688 28.2951 45.4688 23.3955H44.4688ZM22.4688 56.3379L23.1236 55.5822C15.8338 49.2648 10.4044 43.4124 6.80366 38.0235C3.20088 32.6315 1.46875 27.7642 1.46875 23.3955H0.46875H-0.53125C-0.53125 28.2951 1.40787 33.548 5.14072 39.1346C8.87556 44.7242 14.4462 50.7089 21.8139 57.0936L22.4688 56.3379ZM0.46875 23.3955L1.46875 23.3955C1.4689 10.0621 11.4544 1.50391 22.4688 1.50391V0.503906V-0.496094C10.3833 -0.496094 -0.531092 8.92429 -0.53125 23.3955L0.46875 23.3955Z" fill="#44C2B4" mask="url(#path-1-inside-1_2391_9752)"/>
    <path d="M13.9922 11.4863C14.4343 11.4863 14.8237 11.7766 14.9502 12.2002L15.75 14.8809H30.7812C31.0964 14.8809 31.3932 15.0299 31.582 15.2822C31.7471 15.5029 31.8123 15.7804 31.7666 16.0488L31.7402 16.1631L30.5059 20.3613L29.2715 24.5586C29.1464 24.984 28.7559 25.2762 28.3125 25.2764H17.7852C17.7517 25.3015 17.7164 25.331 17.6816 25.3643C17.5452 25.495 17.4697 25.6328 17.4697 25.8018C17.4698 26.0676 17.5549 26.2013 17.627 26.2822C17.6684 26.3287 17.716 26.3666 17.7627 26.3984H28.3125L28.4141 26.4033C28.9184 26.4544 29.3125 26.8806 29.3125 27.3984C29.3124 27.906 28.9334 28.3233 28.4434 28.3877C28.76 28.7691 28.9512 29.2585 28.9512 29.793C28.9512 31.0092 27.9652 31.9951 26.749 31.9951C25.5328 31.9951 24.5469 31.0092 24.5469 29.793C24.5469 29.2637 24.7338 28.7782 25.0449 28.3984H19.6953C20.0065 28.7782 20.1934 29.2637 20.1934 29.793C20.1934 31.0092 19.2074 31.9951 17.9912 31.9951C16.775 31.9951 15.7891 31.0092 15.7891 29.793C15.7891 29.085 16.1244 28.4566 16.6436 28.0537C16.1316 27.7054 15.4698 27.0237 15.4697 25.8018C15.4697 24.913 15.9145 24.2872 16.2979 23.9199C16.3137 23.9048 16.3299 23.8904 16.3457 23.876L15.2988 20.3652L14.0469 16.167L13.2471 13.4863H10.7188C10.1665 13.4863 9.71875 13.0386 9.71875 12.4863C9.71875 11.934 10.1665 11.4863 10.7188 11.4863H13.9922ZM18.2549 23.2764H20.0352L19.793 21.0791H17.5996L18.2549 23.2764ZM22.0469 23.2764H23.8193L24.0215 21.0791H21.8047L22.0469 23.2764ZM25.8281 23.2764H27.5635L28.21 21.0791H26.0293L25.8281 23.2764ZM17.0029 19.0791H19.5723L19.3291 16.8809H16.3467L17.0029 19.0791ZM21.584 19.0791H24.2051L24.4072 16.8809H21.3418L21.584 19.0791ZM26.2139 19.0791H28.7979L29.4453 16.8809H26.416L26.2139 19.0791Z" fill="#44C2B4"/>
</svg>
