<svg width="51" height="57" viewBox="0 0 51 57" fill="none" xmlns="http://www.w3.org/2000/svg">
    <ellipse cx="16.5" cy="15.5" rx="16.5" ry="15.5" transform="matrix(1 0 0 -1 6 37)" fill="white"/>
    <path d="M22.832 0.255859C34.3819 0.255946 44.8319 9.2452 44.832 23.1475C44.832 32.4158 37.4895 43.3878 22.832 56.0898C8.17453 43.3878 0.832031 32.4158 0.832031 23.1475C0.832183 9.24513 11.2821 0.255859 22.832 0.255859ZM11.082 10.4424C10.5297 10.4424 10.082 10.8901 10.082 11.4424C10.082 11.9947 10.5297 12.4424 11.082 12.4424H13.6104L14.4102 15.123L15.6621 19.3213L16.709 22.832C16.6932 22.8465 16.677 22.8608 16.6611 22.876C16.2778 23.2433 15.833 23.8691 15.833 24.7578C15.8331 25.9797 16.4949 26.6615 17.0068 27.0098C16.4877 27.4126 16.1523 28.041 16.1523 28.749C16.1523 29.9652 17.1383 30.9512 18.3545 30.9512C19.5707 30.9512 20.5566 29.9652 20.5566 28.749C20.5566 28.2198 20.3697 27.7343 20.0586 27.3545H25.4082C25.0971 27.7343 24.9102 28.2198 24.9102 28.749C24.9102 29.9652 25.8961 30.9512 27.1123 30.9512C28.3285 30.9512 29.3145 29.9652 29.3145 28.749C29.3145 28.2145 29.1233 27.7251 28.8066 27.3438C29.2967 27.2794 29.6757 26.8621 29.6758 26.3545C29.6758 25.8367 29.2817 25.4105 28.7773 25.3594L28.6758 25.3545H18.126C18.0792 25.3226 18.0317 25.2848 17.9902 25.2383C17.9181 25.1574 17.8331 25.0237 17.833 24.7578C17.833 24.5888 17.9085 24.451 18.0449 24.3203C18.0797 24.2871 18.115 24.2575 18.1484 24.2324H28.6758C29.1192 24.2322 29.5096 23.9401 29.6348 23.5146L30.8691 19.3174L32.1035 15.1191L32.1299 15.0049C32.1755 14.7365 32.1104 14.459 31.9453 14.2383C31.7565 13.986 31.4597 13.8369 31.1445 13.8369H16.1133L15.3135 11.1562C15.187 10.7327 14.7975 10.4424 14.3555 10.4424H11.082ZM20.1562 20.0352L20.3984 22.2324H18.6182L17.9629 20.0352H20.1562ZM24.3848 20.0352L24.1826 22.2324H22.4102L22.168 20.0352H24.3848ZM28.5732 20.0352L27.9268 22.2324H26.1914L26.3926 20.0352H28.5732ZM19.6924 15.8369L19.9355 18.0352H17.3662L16.71 15.8369H19.6924ZM24.7705 15.8369L24.5684 18.0352H21.9473L21.7051 15.8369H24.7705ZM29.8086 15.8369L29.1611 18.0352H26.5771L26.7793 15.8369H29.8086Z" fill="#44C2B4"/>
    <path d="M38 28.7363C38.0219 28.7363 38.0619 28.7379 38.1406 28.8164C38.2318 28.9074 38.3444 29.0734 38.4785 29.3555C38.7477 29.9217 39.0301 30.7879 39.4268 32.0088L40.4434 35.1377C40.548 35.4596 40.6387 35.7414 40.7402 35.9639C40.8339 36.1691 40.9519 36.36 41.1318 36.5146L41.2129 36.5781C41.4393 36.7426 41.6864 36.8085 41.9424 36.8379C42.1854 36.8658 42.4816 36.8643 42.8203 36.8643H46.1104C47.3941 36.8643 48.305 36.8662 48.9268 36.9473C49.2367 36.9877 49.4293 37.043 49.5439 37.1016C49.5935 37.1269 49.622 37.1487 49.6387 37.167L49.6641 37.21C49.6708 37.2308 49.681 37.2693 49.6309 37.3682C49.5726 37.483 49.4497 37.6415 49.2227 37.8564C48.7673 38.2875 48.0309 38.8235 46.9922 39.5781L44.3311 41.5117C44.0569 41.7109 43.8161 41.8843 43.6357 42.0498C43.4698 42.2021 43.3259 42.3733 43.2344 42.5918L43.1982 42.6885C43.1118 42.9546 43.1256 43.2105 43.1768 43.4629C43.2011 43.5829 43.236 43.7137 43.2783 43.8545L43.4229 44.3066L44.4395 47.4355C44.8362 48.6566 45.1164 49.5233 45.2314 50.1396C45.2888 50.447 45.2957 50.6473 45.2754 50.7744C45.2666 50.8294 45.2544 50.8633 45.2422 50.8848L45.209 50.9219C45.1912 50.9348 45.1577 50.9567 45.0479 50.9395C44.9207 50.9195 44.7324 50.8515 44.458 50.7021C43.9073 50.4023 43.1696 49.867 42.1309 49.1123L39.4697 47.1787C39.1956 46.9796 38.9562 46.8049 38.7432 46.6846C38.547 46.5738 38.3396 46.4892 38.1035 46.4697L38 46.4658C37.7201 46.4658 37.4812 46.5579 37.2568 46.6846C37.1504 46.7447 37.0376 46.8188 36.917 46.9023L36.5303 47.1787L33.8691 49.1123C32.8304 49.867 32.0927 50.4023 31.542 50.7021C31.2676 50.8515 31.0793 50.9195 30.9521 50.9395C30.8969 50.9481 30.8611 50.9464 30.8369 50.9414L30.791 50.9219C30.7732 50.9089 30.7421 50.8838 30.7246 50.7744C30.7043 50.6473 30.7112 50.447 30.7686 50.1396C30.8836 49.5233 31.1638 48.6566 31.5605 47.4355L32.5771 44.3066C32.6818 43.9844 32.7746 43.7027 32.8232 43.4629C32.868 43.242 32.8846 43.0187 32.8301 42.7881L32.8018 42.6885C32.7152 42.4225 32.554 42.2239 32.3643 42.0498C32.2741 41.9671 32.1686 41.8829 32.0518 41.7939L31.6689 41.5117L29.0078 39.5781C27.9691 38.8235 27.2327 38.2875 26.7773 37.8564C26.5503 37.6415 26.4274 37.483 26.3691 37.3682C26.319 37.2693 26.3292 37.2308 26.3359 37.21C26.3427 37.1891 26.3573 37.1521 26.4561 37.1016C26.5707 37.043 26.7633 36.9877 27.0732 36.9473C27.695 36.8662 28.6059 36.8643 29.8896 36.8643H33.1797C33.5184 36.8643 33.8146 36.8658 34.0576 36.8379C34.2815 36.8122 34.4987 36.7587 34.7012 36.6357L34.7871 36.5781C35.0136 36.4136 35.1527 36.1983 35.2598 35.9639C35.3613 35.7414 35.452 35.4596 35.5566 35.1377L36.5732 32.0088C36.9699 30.7879 37.2523 29.9217 37.5215 29.3555C37.6556 29.0734 37.7682 28.9074 37.8594 28.8164C37.9381 28.7379 37.9781 28.7363 38 28.7363Z" fill="#FFFF00" stroke="black"/>
</svg>
