<svg width="45" height="57" viewBox="0 0 45 57" fill="none" xmlns="http://www.w3.org/2000/svg">
    <ellipse cx="16.5" cy="15.5" rx="16.5" ry="15.5" transform="matrix(1 0 0 -1 6 37)" fill="white"/>
    <path d="M22.832 0.255859C34.3819 0.255946 44.8319 9.2452 44.832 23.1475C44.832 32.4158 37.4895 43.3878 22.832 56.0898C8.17453 43.3878 0.832031 32.4158 0.832031 23.1475C0.832183 9.24513 11.2821 0.255859 22.832 0.255859ZM11.082 10.4424C10.5297 10.4424 10.082 10.8901 10.082 11.4424C10.082 11.9947 10.5297 12.4424 11.082 12.4424H13.6104L14.4102 15.123L15.6621 19.3213L16.709 22.832C16.6932 22.8465 16.677 22.8608 16.6611 22.876C16.2778 23.2433 15.833 23.8691 15.833 24.7578C15.8331 25.9797 16.4949 26.6615 17.0068 27.0098C16.4877 27.4126 16.1523 28.041 16.1523 28.749C16.1523 29.9652 17.1383 30.9512 18.3545 30.9512C19.5707 30.9512 20.5566 29.9652 20.5566 28.749C20.5566 28.2198 20.3697 27.7343 20.0586 27.3545H25.4082C25.0971 27.7343 24.9102 28.2198 24.9102 28.749C24.9102 29.9652 25.8961 30.9512 27.1123 30.9512C28.3285 30.9512 29.3145 29.9652 29.3145 28.749C29.3145 28.2145 29.1233 27.7251 28.8066 27.3438C29.2967 27.2794 29.6757 26.8621 29.6758 26.3545C29.6758 25.8367 29.2817 25.4105 28.7773 25.3594L28.6758 25.3545H18.126C18.0792 25.3226 18.0317 25.2848 17.9902 25.2383C17.9181 25.1574 17.8331 25.0237 17.833 24.7578C17.833 24.5888 17.9085 24.451 18.0449 24.3203C18.0797 24.2871 18.115 24.2575 18.1484 24.2324H28.6758C29.1192 24.2322 29.5096 23.9401 29.6348 23.5146L30.8691 19.3174L32.1035 15.1191L32.1299 15.0049C32.1755 14.7365 32.1104 14.459 31.9453 14.2383C31.7565 13.986 31.4597 13.8369 31.1445 13.8369H16.1133L15.3135 11.1562C15.187 10.7327 14.7975 10.4424 14.3555 10.4424H11.082ZM20.1562 20.0352L20.3984 22.2324H18.6182L17.9629 20.0352H20.1562ZM24.3848 20.0352L24.1826 22.2324H22.4102L22.168 20.0352H24.3848ZM28.5732 20.0352L27.9268 22.2324H26.1914L26.3926 20.0352H28.5732ZM19.6924 15.8369L19.9355 18.0352H17.3662L16.71 15.8369H19.6924ZM24.7705 15.8369L24.5684 18.0352H21.9473L21.7051 15.8369H24.7705ZM29.8086 15.8369L29.1611 18.0352H26.5771L26.7793 15.8369H29.8086Z" fill="#44C2B4"/>
    <path d="M35.9941 37.7549L36.1064 38.1006H42.9229L37.7021 41.8936L37.4082 42.1074L37.5205 42.4531L39.5146 48.5898L34.2939 44.7969L34 44.584L33.7061 44.7969L28.4844 48.5898L30.4795 42.4531L30.5918 42.1074L30.2979 41.8936L25.0771 38.1006H31.8936L32.0059 37.7549L34 31.6172L35.9941 37.7549Z" fill="#FFA827" stroke="black"/>
</svg>
